# 3ds Max Wavefront OBJ Exporter v0.94b - (c)2007 guruware
# File Created: 04.11.2014 18:34:55

mtllib texture_test_2.mtl

#
# object Plane01
#

v  -179.6747 0.0000 -179.6747
v  -179.6747 0.0000 179.6747
v  179.6747 0.0000 -179.6747
v  179.6747 0.0000 179.6747
# 4 vertices

vn 0.0000 1.0000 0.0000
# 1 vertex normals

vt 0.0000 1.0000 0.0000
vt 0.0000 0.0000 0.0000
vt 1.0000 1.0000 0.0000
vt 1.0000 0.0000 0.0000
# 4 texture coords

g Plane01
usemtl Material__25
s 1
f -4/-4/-1 -3/-3/-1 -2/-2/-1 
f -1/-1/-1 -2/-2/-1 -3/-3/-1 
# 2 faces

#
# object Box01
#

v  281.4955 0.0000 -128.5597
v  281.4955 0.0000 -196.1913
v  344.7035 0.0000 -196.1913
v  344.7035 0.0000 -128.5597
v  281.4955 55.7132 -128.5597
v  344.7035 55.7132 -128.5597
v  344.7035 55.7132 -196.1913
v  281.4955 55.7132 -196.1913
# 8 vertices

vn 0.0000 -1.0000 0.0000
vn 0.0000 1.0000 0.0000
vn 0.0000 0.0000 1.0000
vn 1.0000 0.0000 0.0000
vn 0.0000 0.0000 -1.0000
vn -1.0000 0.0000 0.0000
# 6 vertex normals

vt 1.0000 0.0000 0.0000
vt 1.0000 1.0000 0.0000
vt 0.0000 1.0000 0.0000
vt 0.0000 0.0000 0.0000
# 4 texture coords

g Box01
usemtl wire_196088225
s 2
f -8/-4/-6 -7/-3/-6 -6/-2/-6 
f -6/-2/-6 -5/-1/-6 -8/-4/-6 
s 4
f -4/-1/-5 -3/-4/-5 -2/-3/-5 
f -2/-3/-5 -1/-2/-5 -4/-1/-5 
s 8
f -8/-1/-4 -5/-4/-4 -3/-3/-4 
f -3/-3/-4 -4/-2/-4 -8/-1/-4 
s 16
f -5/-1/-3 -6/-4/-3 -2/-3/-3 
f -2/-3/-3 -3/-2/-3 -5/-1/-3 
s 32
f -6/-1/-2 -7/-4/-2 -1/-3/-2 
f -1/-3/-2 -2/-2/-2 -6/-1/-2 
s 64
f -7/-1/-1 -8/-4/-1 -4/-3/-1 
f -4/-3/-1 -1/-2/-1 -7/-1/-1 
# 12 faces

