# 3ds Max Wavefront OBJ Exporter v0.94b - (c)2007 guruware
# File Created: 07.11.2014 17:01:46

mtllib crate.mtl

#
# object Box01
#

v  -0.5000 -0.5000 0.5000
v  -0.4856 -0.5000 0.3773
v  -0.3753 -0.5000 0.3773
v  -0.3865 -0.5000 0.5000
v  0.3753 -0.5000 0.3773
v  0.3865 -0.5000 0.5000
v  0.4856 -0.5000 0.3773
v  0.5000 -0.5000 0.5000
v  -0.4856 -0.5000 -0.3773
v  -0.3753 -0.5000 -0.3773
v  -0.3753 -0.4500 0.3773
v  -0.3753 -0.4500 -0.3773
v  0.3753 -0.4500 -0.3773
v  0.3753 -0.4500 0.3773
v  0.3753 -0.5000 -0.3773
v  0.4856 -0.5000 -0.3773
v  -0.5000 -0.5000 -0.5000
v  -0.3865 -0.5000 -0.5000
v  0.3865 -0.5000 -0.5000
v  0.5000 -0.5000 -0.5000
v  -0.5000 0.5000 0.5000
v  -0.3865 0.5000 0.5000
v  -0.3753 0.5000 0.3773
v  -0.4856 0.5000 0.3773
v  0.3865 0.5000 0.5000
v  0.3753 0.5000 0.3773
v  0.5000 0.5000 0.5000
v  0.4856 0.5000 0.3773
v  -0.3753 0.5000 -0.3773
v  -0.4856 0.5000 -0.3773
v  -0.3753 0.4500 0.3773
v  0.3753 0.4500 0.3773
v  0.3753 0.4500 -0.3773
v  -0.3753 0.4500 -0.3773
v  0.4856 0.5000 -0.3773
v  0.3753 0.5000 -0.3773
v  -0.3865 0.5000 -0.5000
v  -0.5000 0.5000 -0.5000
v  0.3865 0.5000 -0.5000
v  0.5000 0.5000 -0.5000
v  -0.3865 -0.3729 0.5000
v  -0.5000 -0.3729 0.5000
v  0.3865 -0.3729 0.5000
v  0.5000 -0.3729 0.5000
v  -0.3865 0.3729 0.5000
v  -0.5000 0.3729 0.5000
v  -0.3865 -0.3729 0.4500
v  0.3865 -0.3729 0.4500
v  0.3865 0.3729 0.4500
v  -0.3865 0.3729 0.4500
v  0.5000 0.3729 0.5000
v  0.3865 0.3729 0.5000
v  0.4856 -0.3729 0.3773
v  0.4856 -0.3729 -0.3773
v  0.5000 -0.3729 -0.5000
v  0.4856 0.3729 0.3773
v  0.4370 -0.3729 0.3773
v  0.4370 -0.3729 -0.3773
v  0.4370 0.3729 -0.3773
v  0.4370 0.3729 0.3773
v  0.5000 0.3729 -0.5000
v  0.4856 0.3729 -0.3773
v  0.3865 -0.3729 -0.5000
v  -0.3865 -0.3729 -0.5000
v  -0.5000 -0.3729 -0.5000
v  0.3865 0.3729 -0.5000
v  0.3865 -0.3729 -0.4500
v  -0.3865 -0.3729 -0.4500
v  -0.3865 0.3729 -0.4500
v  0.3865 0.3729 -0.4500
v  -0.5000 0.3729 -0.5000
v  -0.3865 0.3729 -0.5000
v  -0.4856 -0.3729 -0.3773
v  -0.4856 -0.3729 0.3773
v  -0.4856 0.3729 -0.3773
v  -0.4370 -0.3729 -0.3773
v  -0.4370 -0.3729 0.3773
v  -0.4370 0.3729 0.3773
v  -0.4370 0.3729 -0.3773
v  -0.4856 0.3729 0.3773
# 80 vertices

vn 0.0000 -1.0000 0.0000
vn 0.0000 -1.0000 0.0000
vn -0.0000 -1.0000 0.0000
vn -0.0000 -1.0000 -0.0000
vn 0.0000 1.0000 0.0000
vn 0.0000 0.0000 1.0000
vn -0.0000 0.0000 1.0000
vn -0.0000 -0.0000 1.0000
vn 0.0000 -0.0000 1.0000
vn 0.9932 -0.0000 -0.1167
vn 0.9983 -0.0000 -0.0585
vn 0.9970 -0.0000 -0.0779
vn 0.9983 0.0000 0.0585
vn 0.9970 0.0000 0.0779
vn 0.9932 0.0000 0.1167
vn 0.9970 0.0000 -0.0779
vn 0.9932 0.0000 -0.1167
vn 1.0000 0.0000 0.0000
vn 0.9983 0.0000 -0.0585
vn 0.0000 0.0000 -1.0000
vn 0.0000 -0.0000 -1.0000
vn -0.9932 -0.0000 0.1167
vn -0.9983 -0.0000 0.0585
vn -0.9970 -0.0000 0.0779
vn -0.9983 0.0000 -0.0585
vn -0.9970 0.0000 -0.0779
vn -0.9932 -0.0000 -0.1167
vn -0.9932 0.0000 -0.1167
vn -0.9970 0.0000 0.0779
vn -0.9932 0.0000 0.1167
vn -1.0000 0.0000 0.0000
vn -0.9970 -0.0000 -0.0779
vn -0.9983 0.0000 0.0585
vn -0.9983 -0.0000 -0.0585
# 34 vertex normals

vt 1.0000 0.0000 0.0000
vt 0.9856 0.1227 0.0000
vt 0.8753 0.1227 0.0000
vt 0.8865 0.0000 0.0000
vt 0.1247 0.1227 0.0000
vt 0.1135 -0.0000 0.0000
vt 0.0144 0.1227 0.0000
vt 0.0000 -0.0000 0.0000
vt 0.9856 0.8773 0.0000
vt 0.8753 0.8773 0.0000
vt 0.8753 0.1227 0.0500
vt 0.8753 0.8773 0.0500
vt 0.1247 0.8773 0.0500
vt 0.1247 0.1227 0.0500
vt 0.1247 0.8773 0.0000
vt 0.0144 0.8773 0.0000
vt 1.0000 1.0000 0.0000
vt 0.8865 1.0000 0.0000
vt 0.1135 1.0000 0.0000
vt -0.0000 1.0000 0.0000
vt -0.0000 0.0000 1.0000
vt 0.1135 0.0000 1.0000
vt 0.1247 0.1227 1.0000
vt 0.0144 0.1227 1.0000
vt 0.8865 -0.0000 1.0000
vt 0.8753 0.1227 1.0000
vt 1.0000 -0.0000 1.0000
vt 0.9856 0.1227 1.0000
vt 0.1247 0.8773 1.0000
vt 0.0144 0.8773 1.0000
vt 0.1247 0.1227 0.9500
vt 0.8753 0.1227 0.9500
vt 0.8753 0.8773 0.9500
vt 0.1247 0.8773 0.9500
vt 0.9856 0.8773 1.0000
vt 0.8753 0.8773 1.0000
vt 0.1135 1.0000 1.0000
vt 0.0000 1.0000 1.0000
vt 0.8865 1.0000 1.0000
vt 1.0000 1.0000 1.0000
vt -0.0000 0.0000 0.0000
vt 0.1135 0.0000 0.0000
vt 0.1135 0.1271 0.0000
vt -0.0000 0.1271 0.0000
vt 0.8865 0.0000 -0.0000
vt 0.8865 0.1271 -0.0000
vt 1.0000 0.0000 -0.0000
vt 1.0000 0.1271 -0.0000
vt 0.1135 0.8729 0.0000
vt -0.0000 0.8729 0.0000
vt 0.1135 0.1271 0.0500
vt 0.8865 0.1271 0.0500
vt 0.8865 0.8729 0.0500
vt 0.1135 0.8729 0.0500
vt 1.0000 0.8729 -0.0000
vt 0.8865 0.8729 -0.0000
vt 0.8865 1.0000 -0.0000
vt 1.0000 1.0000 -0.0000
vt 0.1227 0.0000 0.9856
vt 0.1227 0.1271 0.9856
vt -0.0000 0.1271 1.0000
vt 0.8773 0.0000 0.9856
vt 0.8773 0.1271 0.9856
vt 1.0000 0.0000 1.0000
vt 1.0000 0.1271 1.0000
vt 0.1227 0.8729 0.9856
vt -0.0000 0.8729 1.0000
vt 0.1227 0.1271 0.9370
vt 0.8773 0.1271 0.9370
vt 0.8773 0.8729 0.9370
vt 0.1227 0.8729 0.9370
vt 1.0000 0.8729 1.0000
vt 0.8773 0.8729 0.9856
vt 0.1227 1.0000 0.9856
vt -0.0000 1.0000 1.0000
vt 0.8773 1.0000 0.9856
vt 0.1135 0.1271 1.0000
vt 0.8865 0.0000 1.0000
vt 0.8865 0.1271 1.0000
vt 0.1135 0.8729 1.0000
vt 0.1135 0.1271 0.9500
vt 0.8865 0.1271 0.9500
vt 0.8865 0.8729 0.9500
vt 0.1135 0.8729 0.9500
vt 0.8865 0.8729 1.0000
vt 0.1227 0.0000 0.0144
vt 0.1227 0.1271 0.0144
vt 0.8773 0.0000 0.0144
vt 0.8773 0.1271 0.0144
vt 0.1227 0.8729 0.0144
vt 0.1227 0.1271 0.0630
vt 0.8773 0.1271 0.0630
vt 0.8773 0.8729 0.0630
vt 0.1227 0.8729 0.0630
vt 0.8773 0.8729 0.0144
vt 0.1227 1.0000 0.0144
vt 0.8773 1.0000 0.0144
vt 0.0144 0.8773 0.1271
vt 0.0144 0.1227 0.1271
vt 0.0630 0.1227 0.1271
vt 0.0630 0.8773 0.1271
vt 0.0144 0.8729 0.8773
vt 0.0144 0.1271 0.8773
vt 0.0630 0.1271 0.8773
vt 0.0630 0.8729 0.8773
vt 0.9856 0.1271 0.1227
vt 0.9856 0.8729 0.1227
vt 0.9370 0.8729 0.1227
vt 0.9370 0.1271 0.1227
vt 0.9856 0.1227 0.8729
vt 0.9856 0.8773 0.8729
vt 0.9370 0.8773 0.8729
vt 0.9370 0.1227 0.8729
vt 0.8753 1.0000 0.1227
vt 0.1247 1.0000 0.1227
vt 0.1247 0.9500 0.1227
vt 0.8753 0.9500 0.1227
vt 0.8773 1.0000 0.1247
vt 0.1227 1.0000 0.1247
vt 0.1227 0.9500 0.1247
vt 0.8773 0.9500 0.1247
vt 0.8773 1.0000 0.8753
vt 0.1227 1.0000 0.8753
vt 0.1227 0.9500 0.8753
vt 0.8773 0.9500 0.8753
vt 0.8753 1.0000 0.8773
vt 0.1247 1.0000 0.8773
vt 0.1247 0.9500 0.8773
vt 0.8753 0.9500 0.8773
vt 0.1135 0.0000 0.1271
vt 0.8865 -0.0000 0.1271
vt 0.8865 0.0500 0.1271
vt 0.1135 0.0500 0.1271
vt 0.0000 0.8729 0.1135
vt 0.0000 0.1271 0.1135
vt 0.0500 0.1271 0.1135
vt 0.0500 0.8729 0.1135
vt 1.0000 0.1271 0.8865
vt 1.0000 0.8729 0.8865
vt 0.9500 0.8729 0.8865
vt 0.9500 0.1271 0.8865
vt 0.1135 -0.0000 0.8729
vt 0.8865 0.0000 0.8729
vt 0.8865 0.0500 0.8729
vt 0.1135 0.0500 0.8729
vt 0.8865 1.0000 0.1271
vt 0.1135 1.0000 0.1271
vt 0.1135 0.9500 0.1271
vt 0.8865 0.9500 0.1271
vt 0.0000 0.8729 0.8865
vt 0.0000 0.1271 0.8865
vt 0.0500 0.1271 0.8865
vt 0.0500 0.8729 0.8865
vt 1.0000 0.1271 0.1135
vt 1.0000 0.8729 0.1135
vt 0.9500 0.8729 0.1135
vt 0.9500 0.1271 0.1135
vt 0.8865 1.0000 0.8729
vt 0.1135 1.0000 0.8729
vt 0.1135 0.9500 0.8729
vt 0.8865 0.9500 0.8729
vt 0.9856 0.1227 0.1271
vt 0.9856 0.8773 0.1271
vt 0.9370 0.8773 0.1271
vt 0.9370 0.1227 0.1271
vt 0.0144 0.8729 0.1227
vt 0.0144 0.1271 0.1227
vt 0.0630 0.1271 0.1227
vt 0.0630 0.8729 0.1227
vt 0.9856 0.1271 0.8773
vt 0.9856 0.8729 0.8773
vt 0.9370 0.8729 0.8773
vt 0.9370 0.1271 0.8773
vt 0.0144 0.8773 0.8729
vt 0.0144 0.1227 0.8729
vt 0.0630 0.1227 0.8729
vt 0.0630 0.8773 0.8729
vt 0.1247 0.0000 0.1227
vt 0.8753 0.0000 0.1227
vt 0.8753 0.0500 0.1227
vt 0.1247 0.0500 0.1227
vt 0.1227 0.0000 0.1247
vt 0.8773 0.0000 0.1247
vt 0.8773 0.0500 0.1247
vt 0.1227 0.0500 0.1247
vt 0.1247 0.0000 0.8773
vt 0.8753 0.0000 0.8773
vt 0.8753 0.0500 0.8773
vt 0.1247 0.0500 0.8773
vt 0.1227 0.0000 0.8753
vt 0.8773 0.0000 0.8753
vt 0.8773 0.0500 0.8753
vt 0.1227 0.0500 0.8753
# 193 texture coords

g Box01
usemtl Material__27
s 2
f -80/-193/-34 -79/-192/-33 -78/-191/-34 
f -78/-191/-34 -77/-190/-34 -80/-193/-34 
f -77/-190/-34 -78/-191/-34 -76/-189/-34 
f -76/-189/-34 -75/-188/-32 -77/-190/-34 
f -75/-188/-32 -76/-189/-34 -74/-187/-32 
f -74/-187/-32 -73/-186/-32 -75/-188/-32 
f -79/-192/-33 -72/-185/-33 -71/-184/-33 
f -71/-184/-33 -78/-191/-34 -79/-192/-33 
f -70/-183/-33 -69/-182/-33 -68/-181/-33 
f -68/-181/-33 -67/-180/-33 -70/-183/-33 
f -76/-189/-34 -66/-179/-31 -65/-178/-33 
f -65/-178/-33 -74/-187/-32 -76/-189/-34 
f -72/-185/-33 -64/-177/-33 -63/-176/-33 
f -63/-176/-33 -71/-184/-33 -72/-185/-33 
f -71/-184/-33 -63/-176/-33 -62/-175/-31 
f -62/-175/-31 -66/-179/-31 -71/-184/-33 
f -66/-179/-31 -62/-175/-31 -61/-174/-31 
f -61/-174/-31 -65/-178/-33 -66/-179/-31 
s 4
f -60/-173/-30 -59/-172/-30 -58/-171/-30 
f -58/-171/-30 -57/-170/-30 -60/-173/-30 
f -59/-172/-30 -56/-169/-30 -55/-168/-30 
f -55/-168/-30 -58/-171/-30 -59/-172/-30 
f -56/-169/-30 -54/-167/-30 -53/-166/-30 
f -53/-166/-30 -55/-168/-30 -56/-169/-30 
f -57/-170/-30 -58/-171/-30 -52/-165/-30 
f -52/-165/-30 -51/-164/-30 -57/-170/-30 
f -50/-163/-30 -49/-162/-30 -48/-161/-30 
f -48/-161/-30 -47/-160/-30 -50/-163/-30 
f -55/-168/-30 -53/-166/-30 -46/-159/-30 
f -46/-159/-30 -45/-158/-30 -55/-168/-30 
f -51/-164/-30 -52/-165/-30 -44/-157/-30 
f -44/-157/-30 -43/-156/-30 -51/-164/-30 
f -52/-165/-30 -45/-158/-30 -42/-155/-30 
f -42/-155/-30 -44/-157/-30 -52/-165/-30 
f -45/-158/-30 -46/-159/-30 -41/-154/-30 
f -41/-154/-30 -42/-155/-30 -45/-158/-30 
s 8
f -80/-153/-29 -77/-152/-29 -40/-151/-29 
f -40/-151/-29 -39/-150/-28 -80/-153/-29 
f -77/-152/-29 -75/-149/-28 -38/-148/-27 
f -38/-148/-27 -40/-151/-29 -77/-152/-29 
f -75/-149/-28 -73/-147/-28 -37/-146/-28 
f -37/-146/-28 -38/-148/-27 -75/-149/-28 
f -39/-150/-28 -40/-151/-29 -36/-145/-26 
f -36/-145/-26 -35/-144/-26 -39/-150/-28 
f -34/-143/-26 -33/-142/-26 -32/-141/-26 
f -32/-141/-26 -31/-140/-26 -34/-143/-26 
f -38/-148/-27 -37/-146/-28 -30/-139/-27 
f -30/-139/-27 -29/-138/-26 -38/-148/-27 
f -35/-144/-26 -36/-145/-26 -59/-175/-29 
f -59/-175/-29 -60/-174/-29 -35/-144/-26 
f -36/-145/-26 -29/-138/-26 -56/-137/-29 
f -56/-137/-29 -59/-175/-29 -36/-145/-26 
f -29/-138/-26 -30/-139/-27 -54/-136/-29 
f -54/-136/-29 -56/-137/-29 -29/-138/-26 
s 16
f -73/-173/-25 -74/-135/-24 -28/-134/-23 
f -28/-134/-23 -37/-133/-25 -73/-173/-25 
f -74/-135/-24 -65/-132/-22 -27/-131/-21 
f -27/-131/-21 -28/-134/-23 -74/-135/-24 
f -65/-132/-22 -61/-130/-20 -26/-129/-20 
f -26/-129/-20 -27/-131/-21 -65/-132/-22 
f -37/-133/-25 -28/-134/-23 -25/-128/-19 
f -25/-128/-19 -30/-127/-18 -37/-133/-25 
f -24/-126/-17 -23/-125/-17 -22/-124/-17 
f -22/-124/-17 -21/-123/-17 -24/-126/-17 
f -27/-131/-21 -26/-129/-20 -20/-122/-20 
f -20/-122/-20 -19/-121/-21 -27/-131/-21 
f -30/-127/-18 -25/-128/-19 -53/-120/-16 
f -53/-120/-16 -54/-119/-18 -30/-127/-18 
f -25/-128/-19 -19/-121/-21 -46/-118/-22 
f -46/-118/-22 -53/-120/-16 -25/-128/-19 
f -19/-121/-21 -20/-122/-20 -41/-154/-20 
f -41/-154/-20 -46/-118/-22 -19/-121/-21 
s 32
f -61/-173/-15 -62/-172/-15 -18/-117/-15 
f -18/-117/-15 -26/-133/-15 -61/-173/-15 
f -62/-172/-15 -63/-116/-15 -17/-115/-15 
f -17/-115/-15 -18/-117/-15 -62/-172/-15 
f -63/-116/-15 -64/-130/-15 -16/-129/-15 
f -16/-129/-15 -17/-115/-15 -63/-116/-15 
f -26/-133/-15 -18/-117/-15 -15/-114/-14 
f -15/-114/-14 -20/-127/-14 -26/-133/-15 
f -14/-113/-15 -13/-112/-15 -12/-111/-15 
f -12/-111/-15 -11/-110/-15 -14/-113/-15 
f -17/-115/-15 -16/-129/-15 -10/-122/-14 
f -10/-122/-14 -9/-109/-14 -17/-115/-15 
f -20/-127/-14 -15/-114/-14 -42/-157/-14 
f -42/-157/-14 -41/-119/-14 -20/-127/-14 
f -15/-114/-14 -9/-109/-14 -44/-155/-14 
f -44/-155/-14 -42/-157/-14 -15/-114/-14 
f -9/-109/-14 -10/-122/-14 -43/-154/-14 
f -43/-154/-14 -44/-155/-14 -9/-109/-14 
s 64
f -64/-153/-13 -72/-108/-12 -8/-107/-11 
f -8/-107/-11 -16/-150/-13 -64/-153/-13 
f -72/-108/-12 -79/-106/-10 -7/-105/-9 
f -7/-105/-9 -8/-107/-11 -72/-108/-12 
f -79/-106/-10 -80/-147/-8 -39/-146/-7 
f -39/-146/-7 -7/-105/-9 -79/-106/-10 
f -16/-150/-13 -8/-107/-11 -6/-104/-6 
f -6/-104/-6 -10/-144/-5 -16/-150/-13 
f -5/-103/-4 -4/-102/-4 -3/-101/-4 
f -3/-101/-4 -2/-100/-4 -5/-103/-4 
f -7/-105/-9 -39/-146/-7 -35/-139/-7 
f -35/-139/-7 -1/-99/-3 -7/-105/-9 
f -10/-144/-5 -6/-104/-6 -51/-98/-2 
f -51/-98/-2 -43/-174/-5 -10/-144/-5 
f -6/-104/-6 -1/-99/-3 -57/-97/-1 
f -57/-97/-1 -51/-98/-2 -6/-104/-6 
f -1/-99/-3 -35/-139/-7 -60/-136/-8 
f -60/-136/-8 -57/-97/-1 -1/-99/-3 
s off
f -8/-96/-30 -7/-95/-30 -4/-94/-30 
f -4/-94/-30 -5/-93/-30 -8/-96/-30 
f -6/-92/-26 -8/-91/-26 -5/-90/-26 
f -5/-90/-26 -2/-89/-26 -6/-92/-26 
f -7/-88/-15 -1/-87/-15 -3/-86/-15 
f -3/-86/-15 -4/-85/-15 -7/-88/-15 
f -1/-84/-33 -6/-83/-33 -2/-82/-33 
f -2/-82/-33 -3/-81/-33 -1/-84/-33 
f -58/-80/-15 -55/-79/-15 -49/-78/-15 
f -49/-78/-15 -50/-77/-15 -58/-80/-15 
f -52/-76/-17 -58/-75/-17 -50/-74/-17 
f -50/-74/-17 -47/-73/-17 -52/-76/-17 
f -55/-72/-4 -45/-71/-4 -48/-70/-4 
f -48/-70/-4 -49/-69/-4 -55/-72/-4 
f -45/-68/-29 -52/-67/-29 -47/-66/-29 
f -47/-66/-29 -48/-65/-29 -45/-68/-29 
f -40/-64/-30 -38/-63/-30 -33/-62/-30 
f -33/-62/-30 -34/-61/-30 -40/-64/-30 
f -36/-60/-17 -40/-59/-17 -34/-58/-17 
f -34/-58/-17 -31/-57/-17 -36/-60/-17 
f -38/-56/-4 -29/-55/-4 -32/-54/-4 
f -32/-54/-4 -33/-53/-4 -38/-56/-4 
f -29/-52/-33 -36/-51/-33 -31/-50/-33 
f -31/-50/-33 -32/-49/-33 -29/-52/-33 
f -18/-48/-30 -17/-47/-30 -13/-46/-30 
f -13/-46/-30 -14/-45/-30 -18/-48/-30 
f -15/-44/-4 -18/-43/-4 -14/-42/-4 
f -14/-42/-4 -11/-41/-4 -15/-44/-4 
f -17/-40/-17 -9/-39/-17 -12/-38/-17 
f -12/-38/-17 -13/-37/-17 -17/-40/-17 
f -9/-36/-33 -15/-35/-33 -11/-34/-33 
f -11/-34/-33 -12/-33/-33 -9/-36/-33 
f -28/-32/-30 -27/-31/-30 -23/-30/-30 
f -23/-30/-30 -24/-29/-30 -28/-32/-30 
f -25/-28/-15 -28/-27/-15 -24/-26/-15 
f -24/-26/-15 -21/-25/-15 -25/-28/-15 
f -27/-24/-26 -19/-23/-26 -22/-22/-26 
f -22/-22/-26 -23/-21/-26 -27/-24/-26 
f -19/-20/-33 -25/-19/-33 -21/-18/-33 
f -21/-18/-33 -22/-17/-33 -19/-20/-33 
f -76/-16/-15 -78/-15/-15 -70/-14/-15 
f -70/-14/-15 -67/-13/-15 -76/-16/-15 
f -78/-12/-17 -71/-11/-17 -69/-10/-17 
f -69/-10/-17 -70/-9/-17 -78/-12/-17 
f -71/-8/-29 -66/-7/-29 -68/-6/-29 
f -68/-6/-29 -69/-5/-29 -71/-8/-29 
f -66/-4/-4 -76/-3/-4 -67/-2/-4 
f -67/-2/-4 -68/-1/-4 -66/-4/-4 
# 156 faces

